<svg width="63" height="55" viewBox="0 0 63 55" fill="none" xmlns="http://www.w3.org/2000/svg">
<path d="M20.9629 53C22.2721 53 23.3333 51.9621 23.3333 50.6818C23.3333 49.4015 22.2721 48.3636 20.9629 48.3636C19.6538 48.3636 18.5925 49.4015 18.5925 50.6818C18.5925 51.9621 19.6538 53 20.9629 53Z" stroke="white" stroke-width="4" stroke-linecap="round" stroke-linejoin="round"/>
<path d="M18.5928 32.1364H55.5473C55.8214 32.1365 56.0871 32.0438 56.2992 31.8739C56.5112 31.7041 56.6565 31.4676 56.7103 31.2047L60.977 10.3411C61.0114 10.1729 61.0072 9.99924 60.9647 9.83279C60.9222 9.66633 60.8425 9.51117 60.7312 9.37852C60.6199 9.24587 60.48 9.13902 60.3213 9.0657C60.1627 8.99238 59.9895 8.95441 59.814 8.95453H13.8521" stroke="white" stroke-width="4" stroke-linecap="round" stroke-linejoin="round"/>
<path d="M54.1487 53C55.4578 53 56.5191 51.9621 56.5191 50.6818C56.5191 49.4015 55.4578 48.3636 54.1487 48.3636C52.8396 48.3636 51.7783 49.4015 51.7783 50.6818C51.7783 51.9621 52.8396 53 54.1487 53Z" stroke="white" stroke-width="4" stroke-linecap="round" stroke-linejoin="round"/>
<path d="M2 2H11.4816L18.5928 41.4091H56.5191" stroke="white" stroke-width="4" stroke-linecap="round" stroke-linejoin="round"/>
</svg>
